<svg xmlns="http://www.w3.org/2000/svg" width="128" height="128"><path d="M114.222 67.736a53.958 53.958 0 1 1-53.958-53.958v53.958z" fill="#ffb65f"/><path d="M67.736 6.307a53.958 53.958 0 0 1 53.957 53.957H67.736z" fill="#ffb65f"/><path d="M103.712 67.736a43.448 43.448 0 1 1-43.448-43.448v43.448z" fill="#fee97d"/><path d="M67.736 16.816a43.448 43.448 0 0 1 43.447 43.448H67.736z" fill="#fee97d"/><path d="M90.767 42.637A5.368 5.368 0 1 1 85.4 37.27a5.367 5.367 0 0 1 5.367 5.367zM77.892 90.767a5.368 5.368 0 1 1 5.367-5.367 5.367 5.367 0 0 1-5.367 5.367zM37.233 85.363A5.368 5.368 0 1 1 42.6 90.73a5.367 5.367 0 0 1-5.367-5.367zM42.637 44.7a5.368 5.368 0 1 1-5.368 5.368 5.367 5.367 0 0 1 5.368-5.368z" fill="#f07281"/><path d="M56.947 79.345A2.349 2.349 0 1 0 54.6 77a2.349 2.349 0 0 0 2.347 2.345zM65.434 99.642a2.349 2.349 0 1 0-2.349 2.349 2.349 2.349 0 0 0 2.349-2.349zM28.748 61a2.349 2.349 0 1 0 2.352 2.349A2.349 2.349 0 0 0 28.748 61zM80.927 28.739a2.349 2.349 0 1 0-2.349 2.349 2.349 2.349 0 0 0 2.349-2.349zM60.264 42.86a1.751 1.751 0 0 0-1.75 1.75v4.5a1.75 1.75 0 0 0 3.5 0v-4.5a1.751 1.751 0 0 0-1.75-1.75z"/><path d="M114.222 65.986H62.014v-7.64a1.75 1.75 0 0 0-3.5 0v9.39a1.751 1.751 0 0 0 1.75 1.75h41.654a41.694 41.694 0 1 1-43.4-43.4v8.871a1.75 1.75 0 0 0 3.5 0V13.778a1.751 1.751 0 0 0-1.75-1.75 55.713 55.713 0 0 0-29.7 102.845 1.75 1.75 0 1 0 1.868-2.959 52.214 52.214 0 0 1 26.078-96.357v7.025a45.193 45.193 0 1 0 46.9 46.9h7.025a52.241 52.241 0 0 1-71.959 46.583 1.75 1.75 0 1 0-1.327 3.238 55.739 55.739 0 0 0 76.819-51.567 1.751 1.751 0 0 0-1.75-1.75z"/><path d="M67.735 4.557a1.751 1.751 0 0 0-1.75 1.75v53.957a1.751 1.751 0 0 0 1.75 1.75h53.958a1.751 1.751 0 0 0 1.75-1.75A55.77 55.77 0 0 0 67.735 4.557zm1.75 14.054a41.742 41.742 0 0 1 39.9 39.9h-39.9zm43.4 39.9a45.243 45.243 0 0 0-43.4-43.4V8.086a52.272 52.272 0 0 1 50.429 50.428z"/><path d="M85.4 35.52a7.117 7.117 0 1 0 7.118 7.117A7.125 7.125 0 0 0 85.4 35.52zm0 10.734a3.617 3.617 0 1 1 3.618-3.617 3.622 3.622 0 0 1-3.618 3.617zM85.009 85.4a7.117 7.117 0 1 0-7.117 7.118 7.125 7.125 0 0 0 7.117-7.118zm-10.734 0a3.617 3.617 0 1 1 3.617 3.618 3.621 3.621 0 0 1-3.617-3.618zM42.6 78.246a7.117 7.117 0 1 0 7.117 7.117 7.126 7.126 0 0 0-7.117-7.117zm0 10.734a3.617 3.617 0 1 1 3.617-3.617A3.621 3.621 0 0 1 42.6 88.98zM42.637 42.955a7.117 7.117 0 1 0 7.117 7.117 7.126 7.126 0 0 0-7.117-7.117zm0 10.734a3.617 3.617 0 1 1 3.617-3.617 3.622 3.622 0 0 1-3.617 3.617z"/></svg>